<?xml version="1.0" encoding="UTF-8"?>
<svg id="a" data-name="Layer 1" xmlns="http://www.w3.org/2000/svg" viewBox="0 0 8726.69847 2888.5689">
  <defs>
    <style>
      .b {
        fill: #8c3e45;
      }

      .c {
        fill: #e5ead5;
      }

      .d {
        fill: #9a646a;
      }
    </style>
  </defs>
  <g>
    <g>
      <path class="d" d="M1656.45621,1478.80714c-83.79278-10.58448-167.58682-21.1688-251.3796-31.75328-4.42792-.67557-53.76892-9.03724-74.09056-52.92192-18.55047-40.05833,1.47134-78.63599,5.292-85.99804,21.1503-40.75414,65.29038-59.64288,117.75116-72.76756,108.21848-27.07407,152.27886-4.71052,288.42488-6.61532,169.58065-2.37258,284.45367-21.16864,284.45493-21.1688s80.86402-13.23127,176.40598,14.55364c13.58108,3.94971,33.65855,10.67019,47.18902,29.10696,25.54912,34.81234,8.20558,84.64626,5.292,92.61336-30.2655,82.75601-145.88114,101.48455-157.44182,103.19768-46.33507,74.50584-88.76724,135.0808-121.72112,179.93441-87.25162,118.7582-117.38048,139.9939-153.47313,146.85844-43.17353,8.21127-94.73102-4.16889-128.33643-37.04528-31.0233-30.35089-36.58478-68.22831-43.6606-116.42816-8.38775-57.13304-2.42271-106.32048,5.29327-141.56612Z"/>
      <path class="d" d="M1189.42024,1353.11749c59.35317-36.78957,88.40921-54.17376,84.67457-68.7984-7.0442-27.58787-125.3052-23.95634-209.04105-7.93832-83.87628,16.04506-139.17726,45.67894-197.135,76.73672-56.42694,30.23719-100.87571,61.86332-129.65849,111.136-23.99429,41.07438-15.76341,57.88404-13.23064,62.18324,9.31509,15.80722,33.12847,17.78476,43.6606,18.52264,104.62553,7.3298,285.7656-108.18511,420.73-191.84189Z"/>
      <path class="d" d="M1234.40415,1398.1011c-80.4478,24.77455-152.14981,70.12093-152.15108,70.12156-103.76651,65.62469-125.10278,88.2906-138.92044,119.07432-4.71511,10.50462-20.47093,45.60889-6.61532,60.86024,13.55198,14.91705,49.70662,4.53957,92.61447-13.23032,55.88926-23.14618,137.86659-64.89139,235.50233-144.21244,33.68132-19.91522,49.79264-50.54065,42.33728-71.44456-4.15213-11.64291-14.98283-18.49924-17.19932-19.8458-19.27665-11.71328-42.8446-5.2414-55.56792-1.323Z"/>
      <path class="d" d="M1116.65172,1761.93939c-13.13069-16.179-2.91863-44.6145,2.64663-59.53724,33.48776-89.80179,139.90217-156.16752,198.45705-187.87273,7.50596-3.11584,33.08925-12.63888,62.18324-2.64616,8.42191,2.8927,28.43234,9.76531,35.72196,25.13796,12.56139,26.49148-19.09321,64.64722-52.92129,104.52068-45.54057,53.68005-84.88205,98.87334-152.15108,120.39748-17.09179,5.4688-74.57131,23.8605-93.93652,0Z"/>
      <path class="d" d="M1422.27593,1653.44923c11.23175-16.83813,24.60534-36.50571,48.9526-54.24476,18.88447-13.75914,50.14182-36.53291,78.06051-26.46096,27.11914,9.78318,36.36718,45.24532,38.3686,52.92176,21.65002,83.01916-77.13065,168.66629-87.3212,177.28841-20.65184,25.39415-49.13099,40.78593-72.76851,34.39928-36.90106-9.97042-44.71698-68.34565-42.33728-99.22852,2.5391-32.94376,18.38221-56.69641,37.04528-84.6752Z"/>
      <path class="d" d="M957.08594,805.83348c-15.27254-8.45259-70.59124-40.20018-93.93652-108.48984-1.5308-4.47979-35.15519-108.68436,35.72323-187.87288,71.55526-79.94539,180.26587-56.90769,191.84173-54.24492,10.47773,2.41006,104.8659,25.8186,142.88913,117.75132,29.69999,71.80749,17.62061,167.54887-50.27592,223.59501-95.57359,78.89265-220.76999,12.29002-226.24164,9.26132Z"/>
      <path class="d" d="M2652.92851,740.54888c-64-59.39001-143.21002-70.10999-181.47003-72.31v-.02002c-.03998,0-.07996.01001-.12.01001-.02997,0-.07001-.01001-.10999-.01001v.02002c-38.26001,2.20001-117.46997,12.91998-181.46997,72.31-77.96997,72.34003-77.84009,165.38-77.62,319.28998.02991,22.54004,1.47998,51.33002,21.17004,68.79999,19.82996,17.60004,42.23999,9.68005,70.55994,24.70001,16.98999,9.01001,37.65002,27.09003,52.92004,67.03003v56.47998c.06995,6.57001,1.15991,19.03998,8.81995,31.72998,14.71997,24.36005,41.45001,29.25,45.87,29.98004h119.72998c4.42004-.73004,31.15002-5.62,45.87-29.98004,7.66003-12.69,8.75-25.15997,8.82001-31.72998v-56.47998c15.28003-39.94,35.92999-58.02002,52.92004-67.03003,28.32001-15.01996,50.72998-7.09998,70.56-24.70001,19.69-17.46997,21.13995-46.25995,21.16998-68.79999.21997-153.90997.34998-246.94995-77.62-319.28998ZM2418.96849,1020.51885c-25.17999,23.34003-67.27002,38.59003-103.21997,22.71002-52.1001-23-73.30005-100.46002-37.16003-148.64001,28.30994-37.74994,83.19006-44.62,121.80005-26.83997,8.98999,4.14001,37.90997,19.20001,49.00995,52.28998,13.04004,38.84003-6.57001,78.37-30.42999,100.47998ZM2515.55852,1163.91888c-4.72003,5-13.54004,2.79999-14.12,2.65002-20.10004-5.31-21.83002-47.45001-29.92004-47.12-7.71997.31995-5.91998,38.73999-25.78998,46.67999-1.21997.47998-9,3.44995-13.96997-.44-4.12-3.23999-5.16003-10.30005-2.71002-17.82001,8.91998-21.39001,17.84003-42.78003,26.76001-64.16998,2.28998-7.74005,9.58997-12.88,17.40997-12.39001,7.26001.45001,13.53003,5.65997,15.41003,12.89996,9.26996,20.98004,18.53998,41.97003,27.81,62.95001,2.84998,6.51001,2.58997,13.07001-.88,16.76001ZM2636.0385,1060.98888c-35.96002,15.88-78.04999.63-103.22998-22.71002-23.85999-22.12-43.46002-61.64001-30.42999-100.47998,11.10999-33.09003,40.01996-48.15002,49.01001-52.28998,38.60999-17.78003,93.5-10.91003,121.81,26.83997,36.13995,48.17999,14.92999,125.64001-37.16003,148.64001Z"/>
      <path class="d" d="M2967.81739,1626.98809c-17.16393,4.76524-50.82173-28.48717-121.72085-179.93447-11.56086-1.71305-127.17634-20.44145-157.44198-103.1976-2.91346-7.967-20.25696-57.80085,5.29215-92.61331,13.53022-18.43666,33.60762-25.15701,47.18901-29.10705,75.65453-22.00346,144.4854-19.46292,176.40604-14.55353.00098,0,.0059.00098.0064.00098,83.89015,12.91723,102.67906,404.8544,50.26925,419.40498Z"/>
    </g>
    <g>
      <path class="b" d="M2408.39223,599.52957c-50.94423-1.25737-110.61151-2.09348-177.67081-1.8204-31.92636.13001-74.08454.60122-122.37012,15.47395-39.21712,12.07946-52.87944,24.54244-60.00931,33.6786-3.50587,4.49225-22.09057,29.71815-8.23587,53.70366,9.09208,15.74061,28.01207,22.59431,43.53533,28.21729,8.13686,2.94733,62.66572,21.94479,116.48688,4.44666,38.21352-12.42381,44.07539-32.63284,81.58008-64.32317,24.77061-20.93069,64.10249-47.4713,126.68382-69.3766Z"/>
      <path class="b" d="M2143.33688,832.27781c-15.7204-16.4374-42.09438-18.11511-59.97814-14.11259-11.19506,2.50541-37.92834,11.45884-67.03372,65.2703-10.06024,18.59855-83.92435,155.16222-17.64085,236.38459,21.55008,26.40767,68.22926,59.60192,107.60742,42.3376,34.5998-15.16944,42.94581-60.25472,44.10213-67.03451.60599-11.6543,6.6014-128.65872,7.05558-216.97985.0544-10.55032-.12651-31.24122-14.11243-45.86555Z"/>
      <path class="b" d="M1947.52646,862.26688c3.23492-14.09503,5.10729-32.79748-5.292-44.10165-9.17466-9.97295-21.14271-6.84272-29.9897-15.87648-6.99612-7.14461-12.14896-22.00837-1.76358-56.45003,7.05558-25.28487,14.11243-50.5699,21.16801-75.85478,6.64568-10.30773,7.36807-23.18493,1.76484-33.51717-6.62038-12.20668-19.1008-15.38561-21.16927-15.87664-25.78317-21.47781-61.51652-47.04543-107.60742-69.23946-41.11771-19.79915-78.97014-31.37311-109.37227-38.36844-8.00822-2.64284-25.21387-6.97525-40.13218,1.323-10.05392,5.59263-14.8171,14.55743-23.81464,35.72228-6.87846,16.18122-15.43195,37.60874-24.25617,63.5064-10.98125,7.43765-28.28179,17.88945-51.15771,26.46096-30.29966,11.35288-41.39603,8.54716-56.89124,21.16864-24.27135,19.77068-27.33927,51.33435-27.78459,56.89108-2.63145,32.87639,14.50462,55.76449,18.52264,60.86024,11.53791,13.80548,26.3588,29.42087,44.98392,44.9836,21.89039,18.29144,43.0622,31.51939,60.85993,41.01444,2.95153,1.66253,12.62971,7.60148,17.20059,19.8458,6.47489,17.34576-2.81489,32.57577-3.96995,34.39928-8.3789,40.13249-16.75906,80.26483-25.13796,120.39732-1.95208,10.81837-3.57397,27.20422,0,46.3066,6.54574,34.98914,28.44878,66.36858,54.24587,84.67504,53.43493,37.91837,120.98608,17.99509,164.05713,5.29216,37.09462-10.94061,93.21287-27.49124,120.3978-76.73672,11.20391-20.2946,9.26448-35.79661,15.87601-101.87468,5.58298-55.80102,8.05503-102.29613,9.26195-134.95081Z"/>
      <path class="b" d="M1244.54663,837.56997c29.63547-5.41219,83.62705-11.09717,145.53576,7.93832,31.38133,9.64892,75.38099,23.17781,101.43363,58.21408,39.91331,53.67799,27.88454,144.63831-26.46128,226.68206-59.7036,25.29072-148.87062,56.07049-260.19876,68.79856-304.2971,34.7902-537.41088-92.35338-613.89505-134.06886C128.97026,813.15771,15.84311,281.22379,0,200.74301c2.87562-35.71445,13.84043-101.35851,63.50656-148.18136C128.67549-8.87683,223.65194-3.1958,333.40754,4.93189c133.01106,9.84984,230.59872,43.24311,243.44097,47.62976,55.24405,18.87,766.94689,260.86683,942.01058,391.62217,11.36332,8.48707,33.50421,26.24399,37.04528,52.92192,6.14975,46.32194-47.49645,91.501-84.67583,111.136-15.53189,8.20257-74.81042,39.50863-127.01185,15.87648-57.00257-25.80594-44.38931-89.42605-104.52053-150.82744-53.83344-54.96999-124.78777-66.10986-158.7664-71.44456-14.244-2.23626-216.39773-31.06347-295.03894,99.22852-68.09768,112.82273-1.12216,274.60849,103.19721,349.28465,109.07749,78.08155,237.91239,45.84467,246.08633,43.6606,51.47019-13.75313,88.27004-39.2039,109.37227-56.45003Z"/>
      <path class="b" d="M1989.86375,1677.26419c2.25698-2.76208,10.35375-11.99525,21.16927-11.90732,14.38443.11671,29.74553,16.68885,30.42996,41.01428-3.26907,31.29657-18.87055,143.70892-113.78248,228.88733-105.63636,94.80376-235.80722,89.71797-263.28692,88.6442-70.69245-2.76208-136.27254-23.81464-136.27381-23.81496-42.84586-13.7544-56.98359-24.84477-99.22852-34.39896-9.56558-2.16336-53.39065-11.67011-115.10453-7.93832-86.16741,5.21072-132.35066,31.70236-190.51968,48.9526-92.85864,27.53758-170.0867,17.83094-259.31697,6.61532-108.32348-13.61524-255.84675-32.15749-340.02286-145.53513-23.85007-32.12428-36.57592-63.72732-43.6606-85.9982,1.57508-27.50722,6.66086-68.65687,23.81464-115.10516,28.94724-78.37869,92.12234-171.47786,133.62717-161.41192,30.29839,7.34814,18.75922,62.32905,60.86119,84.6752,50.92113,27.02726,107.7605-32.19275,144.21118-5.29232,32.13029,23.71154,1.19933,79.48678,33.0766,105.844,42.05643,34.77281,129.06514-34.87845,165.38172,0,22.22565,21.34481-.38713,57.00953,27.78333,88.6442,20.55316,23.08024,52.0901,25.99508,71.4452,27.78396,82.7402,7.64734,125.71131-49.37832,162.73382-26.46096,18.08744,11.19601,9.22147,25.66646,35.72323,54.24492,6.01818,6.48912,33.54343,34.93285,74.09056,43.6606,51.99396,11.1919,99.1387-15.6875,138.91917-38.3686,49.88626-28.44277,51.71563-44.76948,78.06051-46.3066,46.46791-2.71115,56.04108,47.19155,111.13585,60.86024,69.92831,17.34892,140.73589-41.64937,165.38045-62.18324,47.48253-39.56351,71.50213-86.08075,83.35252-115.10516Z"/>
      <path class="b" d="M2536.05835,599.52957c50.94423-1.25737,110.61151-2.09348,177.67081-1.8204,31.92636.13001,74.08454.60122,122.37012,15.47395,39.21712,12.07946,52.87944,24.54244,60.00931,33.6786,3.50587,4.49225,22.09057,29.71815,8.23587,53.70366-9.09208,15.74061-28.01207,22.59431-43.53533,28.21729-8.13686,2.94733-62.66572,21.94479-116.48688,4.44666-38.21352-12.42381-44.07539-32.63284-81.58008-64.32317-24.77061-20.93069-64.10249-47.4713-126.68382-69.3766Z"/>
      <path class="b" d="M2801.11371,832.27781c15.7204-16.4374,42.09438-18.11511,59.97814-14.11259,11.19506,2.50541,37.92834,11.45884,67.03372,65.2703,10.06024,18.59855,83.92435,155.16222,17.64085,236.38459-21.55008,26.40767-68.22926,59.60192-107.60742,42.3376-34.5998-15.16944-42.94581-60.25472-44.10213-67.03451-.60599-11.6543-6.6014-128.65872-7.05558-216.97985-.0544-10.55032.12651-31.24122,14.11243-45.86555Z"/>
      <path class="b" d="M2864.28848,1551.57465c-8.1069-27.60874-37.53615-41.08102-48.9526-46.3066-34.42901-15.76088-53.72591-5.23064-101.87389-15.87664-25.24044-5.58108-44.82451-13.97769-56.89124-19.84596-18.87814-24.0955-38.60771-38.34962-51.59924-46.3066-32.97539-20.19513-64.46046-25.4865-87.3212-29.10728-19.05146-3.01668-35.09067-3.63786-46.1959-3.63596v-.0019c-.01771,0-.03922.00063-.05567.00063s-.03922-.00063-.05567-.00063v.0019c-11.10523-.0019-27.14571.61928-46.19717,3.63596-22.86074,3.62078-54.34455,8.91215-87.3212,29.10728-12.99027,7.95698-32.7211,22.2111-51.59924,46.3066-12.06673,5.86827-31.6508,14.26488-56.88997,19.84596-48.14799,10.646-67.44615.11576-101.87516,15.87664-11.41645,5.22558-40.84571,18.69786-48.9526,46.3066,0,.00063-8.77994,29.90683,17.20059,66.15193,55.65775,77.64619,340.70096-16.21822,375.69042-27.98575,34.98946,11.76753,320.03267,105.63194,375.69042,27.98575,25.98053-36.24509,17.19932-66.1513,17.19932-66.15193Z"/>
      <path class="b" d="M2816.10887,1724.89374c-23.07708-17.03739-57.81731-7.00877-88.20426,1.76421-36.59616,10.56503-63.24974,28.06735-79.38257,40.57307-3.5221.68443-9.17213,1.31573-15.87601,0-9.19996-1.80533-15.499-6.31802-18.52264-8.81979-4.58733-13.81259-19.90542-53.91947-61.74298-82.91099-32.93237-22.82152-65.72179-27.30069-81.14868-28.38806v-.05756c-.09615.00633-.23152.02151-.32893.02847-.09741-.00696-.23405-.02214-.3302-.02847v.05756c-15.42562,1.08737-48.21504,5.56653-81.14868,28.38806-41.83756,28.99152-57.15565,69.0984-61.74298,82.91099-3.02364,2.50178-9.32141,7.01447-18.52138,8.81979-6.70514,1.31573-12.35517.68443-15.87727,0-16.13283-12.50572-42.7864-30.00804-79.3813-40.57307-30.38821-8.77298-65.12844-18.8016-88.20426-1.76421-26.43597,19.51766-25.54027,65.67561-21.16801,85.55699,24.61167,111.92022,322.48701,133.47472,365.82247,136.20296v.07085c.15308-.00949.39092-.0253.55159-.03542.16067.01012.39725.02593.55159.03542v-.07085c43.33546-2.72823,341.20954-24.28274,365.82247-136.20296,4.37226-19.88138,5.26797-66.03933-21.16801-85.55699Z"/>
      <path class="b" d="M2790.30798,1972.08326c-4.76445-5.14841-21.36031-20.58542-74.09056-14.11243-121.10247,14.86581-190.51968,107.60679-190.51968,107.60805-13.29136,18.10831-29.82903,45.01112-41.49092,80.44906-7.54012,22.91514-11.12927,43.67325-12.85869,60.86182-1.64972-17.54154-5.26797-39.07707-13.08894-62.84617-11.66189-35.43858-28.19955-62.34075-41.49092-80.4497,0-.00063-69.41721-92.74225-190.51968-107.60805-52.73026-6.47236-69.32612,8.96465-74.09056,14.11243-17.81797,19.24692-13.05099,48.91022-12.34758,52.92192,6.74057,38.47171,41.74394,54.99799,65.27014,77.61899,35.38291,34.02417,31.46104,69.09144,49.39287,178.1702,12.73724,77.47793,37.30337,156.90793,86.43815,315.76795,7.49458,24.23024,21.34513,67.214,59.9794,104.07963,25.42135,24.2587,52.36843,37.0883,70.12061,43.92438v2.16146c17.74712-6.79433,44.94217-19.65239,70.56341-44.1015,38.63427-36.865,52.48482-79.8494,59.9794-104.07963,49.13478-158.86002,73.70091-238.28939,86.43815-315.76732,17.93183-109.07939,14.00995-144.14666,49.39287-178.1702,23.5262-22.62163,58.52957-39.14791,65.27014-77.61899.70341-4.0117,5.47038-33.675-12.34758-52.92192Z"/>
      <path class="b" d="M2893.72659,95.78123c-1.89642-1.11837-14.78168-8.46493-27.34307-3.52842-14.8753,5.84676-19.02236,24.88241-23.81464,38.80949,0,.00127-9.63516,28.0003-53.80434,75.85478-12.62338,13.67659-49.52697,46.80759-139.3607,47.62992-9.80722-17.61934-37.10854-60.98707-91.73142-87.3212-34.42901-16.59839-66.10006-19.87063-85.33623-20.27863v-.00822c-.03416.00063-.07717.0038-.11007.00443-.03542-.00063-.07717-.0038-.11133-.00443v.00822c-19.2349.408-50.90722,3.68024-85.33623,20.27863-54.62288,26.33413-81.92419,69.70186-91.73142,87.3212-89.83373-.82233-126.73732-33.95333-139.3607-47.62992-44.16918-47.85448-53.80434-75.85351-53.80434-75.85478-4.79228-13.92709-8.93935-32.96274-23.81464-38.80949-12.56139-4.9365-25.44665,2.41006-27.34307,3.52842-14.2693,8.41432-21.65888,26.95467-18.52264,46.7475,4.2002,21.82271,16.52248,69.99473,56.44971,115.54606,37.29072,42.54413,79.73047,61.20214,100.55184,68.79856-36.60249,66.53716-27.76941,142.97326,16.75906,185.22704,36.5949,34.72568,85.15152,34.83575,98.787,34.39865,55.78932.58765,111.57611,1.17467,167.36543,1.76168v.00253c.03669-.00063.07338-.00063.11133-.00127.03542.00063.07338.00063.11007.00127v-.00253c55.78805-.58702,111.57737-1.17403,167.36543-1.76168,13.63548.4371,62.1921.32703,98.787-34.39865,44.52847-42.25379,53.36155-118.68988,16.75906-185.22704,20.82137-7.59642,63.26113-26.25443,100.55184-68.79856,39.92723-45.55132,52.24951-93.72335,56.44971-115.54606,3.13624-19.79282-4.25334-38.33318-18.52264-46.7475Z"/>
    </g>
  </g>
  <g>
    <path class="c" d="M4177.48851,1248.45885c-.5-2.41998-.73999-4.59998-.73999-6.57001-19.45001-5.83997-35.23004-14.08997-47.38-24.79999-12.19-10.67999-21.66003-23.57001-28.47003-38.66998-6.79999-15.04999-11.17999-32.56-13.13-52.48999-1.95996-19.94-2.89996-42.54004-2.89996-67.85999,0-22.35004.45996-46.17004,1.44-71.47003.95996-25.27997,1.45996-52.02002,1.45996-80.23999v-62.72998c0-22.35999.48004-43.76001,1.47003-64.16998.95996-20.44,1.69995-39.15002,2.19995-56.19.46002-16.99005,1.68005-30.86005,3.64001-41.57001v-75.85999l11.67004-211.52002v-20.41003c0-16.52997-8.77002-24.79999-26.26001-24.79999h-2.92004c-6.81,2.90002-19.45996,5.60004-37.92999,8-18.47998,2.45001-33.07001,3.66998-43.75,3.66998h-420.14996c-5.84003-2.91998-14.59003-5.10999-26.26001-6.56995-11.66998-1.46002-24.08002-2.42004-37.21002-2.92004-13.13-.47998-26.01996-.95996-38.64996-1.45996-12.65002-.48004-23.33002-.72003-32.10004-.72003-11.66998,0-20.91998,3.64001-27.70001,10.92999-6.82996,7.30005-12.40997,16.05005-16.79999,26.26001-4.35999,10.20001-7.77997,20.92999-10.19995,32.10004-2.45001,11.19-5.61005,21.13995-9.47003,29.89996-7.81,19.46002-18.96997,37.19-33.57001,53.25-14.58997,16.04999-28.94,30.64001-43.02997,43.77002-14.10999,13.13-26.5,24.79999-37.19,35.01001-10.73004,10.19995-16.04999,19.69-16.04999,28.44,0,2.91998,6.56995,11.92999,19.69995,26.97998,13.13,15.09003,28.20001,30.88,45.21002,47.40997,17.01001,16.56,33.06,31.37,48.14001,44.5,15.07001,13.13,24.56,19.69,28.45996,19.69,9.71002,0,20.89001-5.09998,33.54004-15.31,12.62994-10.19995,24.79999-22.34998,36.46997-36.46997,11.66998-14.09003,21.38-29.17999,29.19-45.22998,7.76001-16.03003,11.65997-29.90002,11.65997-41.57001,0-12.63-4.13995-21.88-12.40997-27.72003-8.26001-5.83002-17.27002-10.92999-26.97998-15.32001-9.72003-4.38-18.73004-8.97998-26.98004-13.84998-8.27997-4.85999-12.40997-12.62-12.40997-23.35004h172.13l122.56-10.20996h70.01001c.95996.97998,2.20996,2.70001,3.64996,5.09998,1.46002,2.44,2.20001,4.63,2.20001,6.57001,0,6.82001-6.83002,15.83002-20.44,27-13.63,11.19-29.15997,22.59003-46.66998,34.26001-17.52002,11.69-34.53003,22.62-51.06,32.83002-16.56,10.22998-27.72003,17.75-33.54999,22.62l-52.52002,148.78998c-13.63,37.92999-26.76001,78.56-39.39001,121.81-12.64996,43.29999-26.01996,85.34998-40.10999,126.20001-14.10999,40.82996-29.67999,78.27997-46.70001,112.32996-17.01001,34.04004-36.21997,59.80005-57.62,77.32001-4.85999,3.88-10.44995,6.32001-16.76996,7.28003-6.33002.97998-12.89001,1.96997-19.70001,2.91998-6.79999.98999-13.63,1.97003-20.41003,2.92999-6.82996.98004-12.16998,3.40002-16.06,7.28003-4.85999,3.90997-11.90997,11.66998-21.14996,23.33997-9.25,11.67004-18.48004,24.58002-27.70001,38.67004-9.27002,14.08997-17.29999,27.95996-24.08002,41.56995-6.81,13.63-10.20996,24.80005-10.20996,33.55005,0,10.56,5.16998,15.89996,15.59998,16.03998-1.10999-.03998,1-.29999,6.28003-.72998,5.83997-.5,13.12994-1.44,21.87-2.90002,8.76996-1.46002,18-2.91998,27.71997-4.39001,9.71002-1.45996,17.52002-3.13995,23.34003-5.09998l326.76996-11.66998c14.59003,3.90997,29.66998,6.08997,45.23999,6.57001,15.54999.5,31.10004.71997,46.67004.71997h30.64996c7.76001,0,17.25-.21997,28.44-.71997,11.16998-.48004,17.25-.75,18.22998-.75l103.58002-99.19c8.75,0,16.27002,5.59998,22.62,16.76996,6.29999,11.21002,13.35004,23.36005,21.14001,36.48999,7.77997,13.11005,16.78998,25.30005,27,36.47003,10.21002,11.19,23.07001,16.77002,38.65002,16.77002,3.87994,0,12.88995-6.32001,27-18.97003,14.06995-12.63,28.44-27.21997,43.02997-43.76001,14.57001-16.52997,27.69-32.32001,39.38-47.40997,11.66998-15.07001,17.48999-25.52002,17.48999-31.37,0-.96002-.23999-2.66003-.71997-5.10004ZM3936.05852,1218.55889c-1.96002,2.91998-6.33002,5.59998-13.13,8.01996-6.81,2.42004-13.63,3.64001-20.42004,3.64001h-46.66998l-320.95001,7.29004c-5.82001,0-19.45001-.48004-40.84998-1.46002l-11.66998-11.66998c8.76996-10.69,19.19-19.70001,31.35999-26.98004,12.14996-7.28998,24.79999-13.84998,37.92999-19.69995,13.13-5.84003,26.02002-12.41003,38.66998-19.69,12.63-7.29004,23.34003-16.27002,32.09003-26.98004,3.88-3.88,8.73999-12.89001,14.58997-27,5.84003-14.08997,11.91003-28.91998,18.23004-44.5,6.32996-15.52997,12.14996-29.15997,17.51996-40.82996,5.32001-11.67004,8.96002-17.51001,10.92004-17.51001l32.10999,27.71997c7.76001,5.82001,14.58997,11.19,20.40997,16.04999,5.85004,4.87,12.63,10.71002,20.44,17.5,6.78003,4.88,15.04999,11.45001,24.79999,19.69,9.71002,8.27002,18.95001,12.41003,27.70001,12.41003l126.92004-74.42004v198.42004ZM3937.51848,985.13885c-10.70996,0-20.91998-4.12994-30.62-12.38995-9.75-8.27002-19.21997-17.52002-28.46997-27.72003-9.24005-10.20996-18.73004-19.70001-28.44-28.45001-9.73004-8.75995-19.45001-13.12994-29.17999-13.12994l-59.81,37.92999c-10.71002,4.87-21.39001,10.70996-32.08002,17.5-10.71002,6.82001-22.40002,10.21997-35.03003,10.21997l7.31-20.42999c6.78003-19.44,16.53003-47.64001,29.17999-84.60999,12.63-36.94,25.76001-75.60999,39.37006-115.96002,13.60999-40.34998,27.47998-79.26996,41.58997-116.70996,14.09003-37.42999,26.97998-67.33002,38.65002-89.73004l23.33997-23.33997h58.37c3.86005,0,5.82001,2.91998,5.82001,8.77002v458.04993Z"/>
    <path class="c" d="M4464.1085,1271.79888c-7.79004-3.41003-16.53003-7.53003-26.23999-12.39001-9.75-4.87-18.49005-10.95001-26.26001-18.26001-7.81-7.27997-11.67004-16.76996-11.67004-28.44l-1.45996-277.16998,13.13-653.53998v-2.92999c-.98004-.96002-1.96002-2.66003-2.92004-5.10004-.97998-2.41998-1.95996-4.59998-2.91998-6.56h-14.59998c-3.88,0-14.10999,1.70001-30.62,5.10004-16.54999,3.41998-33.79999,7.31-51.79999,11.66998-17.99005,4.38-34.29004,9.01001-48.86005,13.87-14.58997,4.85999-22.38995,8.27002-23.34998,10.21002v20.40997c-.96002,43.78003.73999,87.79004,5.12,132.02002,4.35999,44.27997,6.57001,88.77002,6.57001,133.48999v612.70996c-.98999,13.63-3.42999,29.16003-7.31,46.67004-3.90002,17.51996-5.82001,33.54999-5.82001,48.14001,0,2.91998,6.06,10.20996,18.22998,21.87994,12.15002,11.69,25.76001,23.59003,40.83002,35.74005,15.07001,12.16998,29.65997,23.12,43.77002,32.82996,14.08997,9.73004,23.09998,14.59003,26.97998,14.59003,2.92999,0,9.48999-4.60004,19.70001-13.87,10.20996-9.23004,21.39996-19.91003,33.57001-32.09003,12.14996-12.14001,23.54999-25.01001,34.25995-38.64001,10.70996-13.60999,18.47998-24.79999,23.36011-33.56995v-2.92004c0-5.82996-3.90015-10.42999-11.69006-13.84998Z"/>
    <path class="c" d="M4827.36851,659.82891c-10.71008-3.89001-22.38-5.85004-35.01001-5.85004-11.66003,0-22.84998-.71997-33.54004-2.17999-10.70996-1.45996-16.04993-8.98999-16.04993-22.62v-157.53998c0-.96002-1.46997-2.66003-4.39014-5.10004-2.8999-2.41998-5.33984-4.59998-7.27991-6.57001h-2.93005c.95996,0-3.8999,5.35004-14.58997,16.06-10.70996,10.71002-24.55994,24.56006-41.56995,41.57001-17.03003,17.01001-35.27002,35.51001-54.69995,55.42004-19.4801,19.95996-37.71008,39.38995-54.70007,58.37-17.04004,18.95001-31.37,36.21997-43.03003,51.76996-11.67004,15.58002-17.5199,26.77002-17.5199,33.55005,0,4.88995,1.19995,9.26996,3.63989,13.13,2.42004,3.89996,5.59009,8.28998,9.48999,13.12994h58.3501l5.83984,14.59003c0,.97998.4801,12.16998,1.46008,33.57001.96008,21.39001,1.68005,46.66998,2.18005,75.85999.47998,29.15997.95996,59.06,1.45996,89.70001.47998,30.64996.71997,55.69.71997,75.13995,0,4.87006-.23999,15.55005-.71997,32.09003-.5,16.54999-1.21997,34.28003-2.17993,53.23999-.9801,18.97003-1.72009,36.72998-2.20007,53.26001-.5,16.53003-.72009,26.76001-.72009,30.62v52.52002c0,1.96997-1.21997,5.10999-3.63989,9.48999-2.43994,4.35999-4.89001,9.25-7.31006,14.58997-2.41992,5.35004-4.85999,10.21002-7.28003,14.57001-2.44995,4.39001-4.1499,7.07001-5.10986,8.03003v2.91998c0,4.89001,7.77002,12.91003,23.33984,24.08002,15.55005,11.19,33.04004,22.59998,52.52002,34.26001,19.43005,11.69,37.93005,22.13995,55.42004,31.37,17.52002,9.26996,28.20007,13.87,32.10999,13.87,7.76001,0,17.48999-5.58002,29.18005-16.77002,11.67004-11.16998,23.07996-23.82001,34.2699-37.92999,11.16016-14.08997,20.91016-27.47998,29.18018-40.13,8.23999-12.63,12.40991-20.41998,12.40991-23.33997v-11.67004c-34.07007-.95996-58.13-9.70996-72.21997-26.26001-14.11011-16.50995-21.15002-40.84998-21.15002-72.93994v-5.84003c0-9.71002.21997-26.97998.71997-51.78003.4801-24.79999,1.22009-51.06,2.20007-78.77997.95996-27.70001,1.67993-54.20001,2.17993-79.5.47998-25.28003.71997-42.77002.71997-52.52002v-8.75c0-10.69-.23999-22.10999-.71997-34.28998-.5-12.14001-.71997-24.52997-.71997-37.17999,0-5.84998.21997-13.37.71997-22.62.47998-9.22998,1.45996-18.47003,2.92004-27.72003,1.45996-9.22998,3.41003-17.00995,5.82996-23.33997,2.42004-6.33002,5.58008-9.48999,9.47998-9.48999l87.53003-17.48999c0-.96002.23999-4.38.73999-10.23004.47998-5.82001.71997-10.20996.71997-13.13v-14.57001c0-16.52997-5.35986-26.73999-16.04993-30.63995Z"/>
    <path class="c" d="M5078.27855,1004.10888c9.70996-13.60999,21.37988-27.72003,35.01001-42.31,13.60986-14.59003,27.21997-28.67999,40.84985-42.31,13.59009-13.59003,24.30005-24.79999,32.08008-33.54999,3.89001-3.88,10.44995-10.69,19.69995-20.41003,9.22998-9.70996,19.19006-20.17999,29.90002-31.37,10.69006-11.16998,20.66003-21.89996,29.91003-32.09998,9.21997-10.21002,15.79004-17.26001,19.68994-21.15997v-18.95001c0-2.92999-.23999-5.59003-.71997-8.03003-.5-2.41998-2.19995-5.09998-5.09998-8.02997l-140.04993-140.04999h-8.77002c-10.71008,0-19.93005,3.42999-27.70007,10.20996-7.80994,6.83002-15.32996,14.85999-22.62,24.08002-7.30005,9.25-14.37,18.5-21.1499,27.71997-6.81006,9.25-15.1001,15.82001-24.80005,19.70001-10.70996,4.85999-23.6001,9.01001-38.65002,12.39001-15.08997,3.41998-29.45007,7.81-43.05994,13.13-13.61011,5.35999-25.30005,11.45001-35,18.22998-9.7301,6.83002-14.59009,15.57001-14.59009,26.26001v443.47998c.95996,4.89001,1.45996,10.21002,1.45996,16.04999v55.45001c0,11.66998-.5,21.87-1.45996,30.62l78.78003,37.92999c8.73999,4.88,19.18994,10.95001,31.35999,18.23004,12.15002,7.31,24.55994,14.38,37.21008,21.15997,12.62988,6.79999,24.29993,12.89001,35.00989,18.22998,10.68005,5.37,19.91003,8.03003,27.72009,8.03003,4.83984,0,15.54993-5.58002,32.07996-16.77002,16.53992-11.16998,34.04993-23.58002,52.5199-37.20996,18.4801-13.61005,34.77002-26.98004,48.88013-40.11005,14.08997-13.13,21.15991-22.12,21.15991-27,0-5.82996-.73999-10.42999-2.19995-13.84998-1.46997-3.41003-4.63-7.53003-9.48999-12.39001-3.88.96002-7.79004,1.44-11.67004,1.44h-11.67004c-8.75,0-22.59985-1.67999-41.56995-5.10999-18.95996-3.38-37.93005-8.02002-56.88-13.85004-18.97998-5.83997-35.53003-13.12994-49.59998-21.87-14.10999-8.76996-21.16003-18.97998-21.16003-30.64996v-151.71002c0-8.75,4.84009-19.91998,14.59009-33.54999ZM5059.30858,906.35888v-100.65997c0-7.77002.95996-15.79004,2.91992-24.06,1.93994-8.23999,6.30005-12.41003,13.13-12.41003,6.77991,1.96002,13.84998,5.61005,21.16003,10.95001,7.28003,5.35999,14.05994,11.66998,20.40991,18.95001,6.30005,7.31,11.67004,15.09998,16.05005,23.35999,4.37,8.27002,6.57007,15.82001,6.57007,22.60004,0,5.83997-2.71008,12.90997-8.03003,21.14996-5.36011,8.28998-11.67004,16.06-18.96997,23.33997-7.29004,7.31-14.57007,13.63-21.88013,18.98004-7.28003,5.33997-12.38989,8.01996-15.30994,8.01996s-6.34998-.73999-10.21008-2.19995c-3.8999-1.46002-5.83984-4.12-5.83984-8.02002Z"/>
    <path class="c" d="M5566.9785,783.09887c2.91992-5.33997,7.30005-8.01996,13.13013-8.01996,7.77979,0,17.98975,6.07996,30.63989,18.22998,12.62988,12.16998,25.76001,23.59998,39.38989,34.28998h17.48999c5.8501-8.76996,18-23.33997,36.46997-43.77997,18.47998-20.41003,37.43018-38.89001,56.91016-55.41998v-23.36005c0-4.83997-5.11011-12.38995-15.31006-22.59998-10.22998-10.20001-21.41992-20.42999-33.57007-30.64001-12.16992-10.20996-23.33984-19.19-33.55005-26.97998-10.19995-7.79004-15.80981-12.15002-16.76978-13.13h-8.77002c-11.67017,0-21.63013,4.14001-29.90015,12.39001-8.27002,8.28998-16.02979,17.02997-23.33984,26.26001-7.28003,9.26996-14.83008,18.00995-22.62012,26.25995-7.78003,8.29004-17.48999,12.41003-29.15991,12.41003s-21.65015-4.38-29.90015-13.13c-8.29004-8.77002-16.0498-18.22998-23.35986-28.46002-7.28003-10.20996-14.83008-19.67999-22.59009-28.45001-7.80981-8.73999-17.52002-13.12994-29.18994-13.12994h-2.91992c-11.67017,10.70996-24.06006,22.39996-37.19006,35.00995-13.13,12.67004-25.30005,25.06-36.47009,37.21002-11.20996,12.16998-20.92993,23.12-29.17993,32.83002-8.27002,9.71997-13.39001,16.54999-15.31006,20.40997l1.44006,2.91998c0,1.97003,4.38,4.39001,13.13,7.31,8.77002,2.90002,18.26001,8.51001,28.45996,16.77002,10.20996,8.27002,19.69995,20.67999,28.43994,37.19,8.75,16.54999,13.13013,38.42999,13.13013,65.65002,0,12.64996-.26001,24.57996-.73999,35.74994-.5,11.19-.71997,20.68005-.71997,28.44v94.81c0,22.40002-1.46008,46.46002-4.38013,72.22003-2.8999,25.77997-6.08997,50.34003-9.46997,73.67999-3.41992,23.33002-6.33997,44.01001-8.76001,62-2.42993,18-3.16992,31.37-2.18994,40.10999,0,8.75,8.25,19.46002,24.80005,32.09003,16.53992,12.64996,35.96997,25.53998,58.34985,38.66998,22.38013,13.13,44.48999,25.78003,66.39014,37.92999,21.87988,12.17004,38.6499,21.66003,50.32007,28.44l2.91992,1.46002c2.91992,0,12.1499-5.58002,27.71997-16.77002,15.53003-11.16998,31.84985-24.29999,48.86011-39.39001,17.00977-15.06995,32.31982-29.90997,45.94995-44.5,13.60986-14.58997,20.43994-25.27997,20.43994-32.09998v-2.90002c-5.8501-10.70996-17.51001-17.73999-35.03003-21.15997-17.48999-3.40002-35.71997-7.52002-54.69995-12.40997-18.94995-4.84003-35.98999-12.63-51.06006-23.34003-15.09009-10.69-22.59985-28.67999-22.59985-53.97998v-361.78003c0-4.85999,1.43994-9.95996,4.36987-15.31Z"/>
    <path class="c" d="M6399.92845,1253.55889c-6.80005-1.94-14.3501-3.14001-22.60986-3.64001-8.27002-.47998-15.82007-2.41998-22.6001-5.84998-6.83008-3.38-10.20996-11.88-10.20996-25.51001v-367.63l20.41992-118.16998c0-3.85999-2.17993-6.56-6.56982-8.02002-4.38013-1.46997-9.01025-4.13-13.8501-8.02997-3.8999-1.92004-15.09009-8.25-33.56006-18.95001-18.47998-10.69-38.42993-21.88-59.81006-33.54999-21.3999-11.67004-41.08984-22.38-59.08984-32.10004-17.98999-9.70996-28.43994-14.59998-31.36011-14.59998h-8.75c-5.84009,7.81-13.12988,16.79999-21.86987,27.01001-8.77002,10.19995-18.26001,20.40997-28.45996,30.62-10.21021,10.20996-20.68018,18.72998-31.37012,25.53998-10.70996,6.79999-20.41016,10.21002-29.16016,10.21002-1.95996,0-4.16992-.48004-6.56982-1.47003-2.43994-.95996-4.16016-2.41998-5.12012-4.38l-81.67993-81.67999h-8.75c-8.77002,0-20.43994,7.28003-35.03003,21.88-14.56982,14.59003-28.93994,30.64001-43.03003,48.13-14.10986,17.52002-26.5,33.81-37.18994,48.88-10.70996,15.09003-16.55005,23.12-17.51001,24.08002,0,2.89996,2.91992,6.56,8.73999,10.92999,5.8501,4.38,12.63013,9,20.43994,13.87,7.77002,4.85999,15.55005,9.96997,23.34009,15.31,7.76001,5.33997,14.09009,10.46997,18.94995,15.31,2.92993,23.34003,4.63013,46.46002,5.13013,69.28998.47998,22.85999.71997,45.47998.71997,67.84003v261.13995c0,7.78003-.23999,14.83002-.71997,21.13-.5,6.35004-.73999,10.47003-.73999,12.41003l-36.46997,49.59998,119.62988,103.58002c6.78003,0,16.03003-5.10004,27.69995-15.31,11.67017-10.22998,23.36011-22.12,35.03003-35.75,11.66992-13.60999,21.61011-26.47998,29.8999-38.66998,8.25-12.15002,12.39014-20.63,12.39014-25.52002,0-5.84003-4.86011-12.87-14.59009-21.16003-9.72998-8.23999-15.55005-16.26996-17.48999-24.04999-.97998-5.84998-1.45996-11.16998-1.45996-16.06v-409.92999c0-17.48999,2.41992-32.32001,7.28003-44.48999,4.86011-12.14996,10.68994-18.23999,17.51001-18.23999,4.87012,0,14.08984,1.71997,27.72998,5.09998,13.60986,3.43005,27.71997,8.03003,42.29004,13.88,14.58984,5.82001,27.47998,13.13,38.66992,21.87,11.16992,8.75,16.77002,18.5,16.77002,29.19v484.31c0,2.91998,5.1001,9.47998,15.31006,19.69,10.20996,10.22998,21.63989,20.67999,34.29004,31.37,12.62988,10.73004,24.56006,20.42999,35.75,29.17999,11.15991,8.73999,17.72998,13.13,19.68994,13.13h2.8999c2.93018,0,10.4502-6.57001,22.62012-19.70001,12.1499-13.12994,25.28003-27.71997,39.38989-43.75,14.09009-16.04999,26.47998-31.12,37.21021-45.22998,10.68994-14.08997,16.02979-22.62,16.02979-25.52002,0-9.72998-3.3999-15.54999-10.20996-17.51996Z"/>
    <path class="c" d="M6973.2285,1257.9489c-5.82007-4.87006-10.70996-9.25-14.57007-13.13-3.8999-3.89001-7.2998-7.79004-10.22998-11.67004-2.8999-3.88995-6.80005-9.72998-11.65991-17.51996l-2.90991-2.92004c-1.96021-27.21997-3.18018-52.01996-3.66016-74.39996-.5-22.35004-.71997-44.71002-.71997-67.10999v-106.48004l18.94995-224.64996c0-.96002-4.35986-5.10004-13.12988-12.41003-8.73999-7.28998-19.68994-16.04999-32.82007-26.25995-13.11011-10.21002-27.69995-20.90002-43.75-32.09003-16.06006-11.15997-31.63013-21.39001-46.67993-30.64001-15.09009-9.22998-28.45996-16.98999-40.13013-23.33997-11.66992-6.30005-19.93994-9.48999-24.80005-9.48999h-2.8999c-8.77002,4.88995-21.15991,13.39996-37.20996,25.54999-16.05005,12.16998-35.75,25.02997-59.09009,38.63995-23.32983,13.64001-49.82983,26.26001-79.5,37.93005-29.67993,11.66998-62.51001,18.5-98.46997,20.44-4.87012,1.94-7.29004,6.81-7.29004,14.56995,0,17.51001,1.93994,35.27002,5.83008,53.26001,3.87988,18,6.32007,36.23004,7.30005,54.70001v443.47998c1.93994,4.87,8.51001,10.71002,19.69995,17.5,11.15991,6.82001,24.30005,14.59003,39.38989,23.35999,15.05005,8.74005,31.1001,17.27002,48.13013,25.51001,17,8.27002,32.56982,15.82001,46.67993,22.62,14.09009,6.81,25.28003,12.39001,33.55005,16.78003,8.26001,4.38,11.41992,6.56,9.47998,6.56,7.79004,0,15.79004-3.40002,24.08008-10.21002,8.25-6.79999,16.51001-15.07001,24.7998-24.79999,8.25-9.71997,16.27002-19.69,24.06006-29.90002,7.78003-10.22998,15.07007-18.25,21.90015-24.07996h8.73999l131.2998,91.90997,52.5-74.39001c3.89014-3.88995,8.03003-8.98999,12.41016-15.33997,4.38989-6.29999,8.51001-12.63,12.38989-18.95001,3.88013-6.33002,8.27002-14.34998,13.13013-24.08002-10.70996-7.76001-18.9502-14.08997-24.80005-18.94995ZM6773.3784,1224.3789c0,8.76996-1.21997,15.08997-3.63989,18.96997-2.44995,3.91003-7.55005,5.83002-15.31006,5.83002-7.81006,0-18.5-2.40002-32.10986-7.29004-13.63013-4.85999-26.97998-10.94995-40.11011-18.22998-13.13013-7.31-24.58008-15.54999-34.29004-24.79999-9.71997-9.22998-14.59009-18.22998-14.59009-27v-420.12c0-3.88,3.40015-5.84998,10.21021-5.84998h4.37988c1.94995,0,9.70996,3.15997,23.34009,9.48999,13.60986,6.33002,27.95996,13.63,43.03003,21.88,15.07983,8.27997,28.68994,16.76996,40.85986,25.53998,12.14014,8.73999,18.22998,15.09003,18.22998,18.95001v402.63Z"/>
    <path class="c" d="M7358.34837,659.82891c-10.70996-3.89001-22.37988-5.85004-35.00977-5.85004-11.67017,0-22.86011-.71997-33.54004-2.17999-10.70996-1.45996-16.06006-8.98999-16.06006-22.62v-157.53998c0-.96002-1.45996-2.66003-4.37988-5.10004-2.90015-2.41998-5.34009-4.59998-7.29004-6.57001h-2.92017c.96021,0-3.8999,5.35004-14.58984,16.06-10.71021,10.71002-24.56006,24.56006-41.57007,41.57001-17.04004,17.01001-35.27002,35.51001-54.69995,55.42004-19.47998,19.95996-37.71021,39.38995-54.69995,58.37-17.04004,18.95001-31.37012,36.21997-43.04004,51.76996-11.67017,15.58002-17.51001,26.77002-17.51001,33.55005,0,4.88995,1.19995,9.26996,3.63989,13.13,2.41992,3.89996,5.58008,8.28998,9.48999,13.12994h58.34009l5.8501,14.59003c0,.97998.47998,12.16998,1.45996,33.57001.95996,21.39001,1.67993,46.66998,2.17993,75.85999.47998,29.15997.95996,59.06,1.45996,89.70001.47998,30.64996.71997,55.69.71997,75.13995,0,4.87006-.23999,15.55005-.71997,32.09003-.5,16.54999-1.21997,34.28003-2.17993,53.23999-.97998,18.97003-1.71997,36.72998-2.2002,53.26001-.5,16.53003-.71973,26.76001-.71973,30.62v52.52002c0,1.96997-1.22021,5.10999-3.64014,9.48999-2.44995,4.35999-4.89014,9.25-7.31006,14.58997-2.41992,5.35004-4.85986,10.21002-7.29004,14.57001-2.43994,4.39001-4.13989,7.07001-5.09985,8.03003v2.91998c0,4.89001,7.77002,12.91003,23.34009,24.08002,15.5498,11.19,33.03979,22.59998,52.51978,34.26001,19.43018,11.69,37.93018,22.13995,55.42017,31.37,17.51001,9.26996,28.19995,13.87,32.10986,13.87,7.76001,0,17.48999-5.58002,29.18018-16.77002,11.66992-11.16998,23.06982-23.82001,34.25977-37.92999,11.17017-14.08997,20.92017-27.47998,29.19019-40.13,8.23999-12.63,12.40991-20.41998,12.40991-23.33997v-11.67004c-34.07007-.95996-58.12988-9.70996-72.21997-26.26001-14.11011-16.50995-21.15991-40.84998-21.15991-72.93994v-5.84003c0-9.71002.21997-26.97998.71997-51.78003.47998-24.79999,1.22998-51.06,2.20996-78.77997.95996-27.70001,1.67993-54.20001,2.17993-79.5.47998-25.28003.71997-42.77002.71997-52.52002v-8.75c0-10.69-.23999-22.10999-.71997-34.28998-.5-12.14001-.71997-24.52997-.71997-37.17999,0-5.84998.21997-13.37.71997-22.62.47998-9.22998,1.45996-18.47003,2.91992-27.72003,1.46021-9.22998,3.40015-17.00995,5.82007-23.33997,2.42993-6.33002,5.59009-9.48999,9.48999-9.48999l87.53003-17.48999c0-.96002.23999-4.38.73999-10.23004.47998-5.82001.71997-10.20996.71997-13.13v-14.57001c0-16.52997-5.35986-26.73999-16.05005-30.63995Z"/>
    <path class="c" d="M7602.71849,444.65887c-13.12988-9.25-24.58008-13.87-34.29004-13.87h-4.37988c-9.72998,4.89001-20.41992,11.92999-32.08984,21.16003-11.67041,9.25-22.62012,18.72998-32.82031,28.44-10.20996,9.72998-18.73999,19.20996-25.54004,28.44-6.80981,9.26996-10.20996,16.31-10.20996,21.15997,0,10.71002,4.86011,19.47003,14.59009,26.26001,9.70996,6.82001,19.90991,10.20001,30.63989,10.20001,3.87012,0,12.1499-3.64001,24.80029-10.92004,12.62988-7.31,25.51953-16.06,38.6499-26.25995,13.12988-10.21002,24.7998-20.44,35.00977-30.65002,10.20996-10.20001,15.33008-18.22998,15.33008-24.04999,0-10.69-6.56006-20.66003-19.68994-29.91003ZM7683.67845,1278.35888c-5.8501-3.88-12.41016-7.28003-19.7002-10.21002-7.2998-2.91998-14.36963-6.06-21.1499-9.47998-6.82959-3.40997-11.66992-8.98999-14.58984-16.78003,0-3.87994-.51025-11.42999-1.47021-22.60999-.97998-11.16998-1.69971-23.07996-2.17969-35.72998-.5-12.63-.97998-24.29999-1.45996-35.03003-.5-10.69-.72021-18.44995-.72021-23.33997v-5.82001c0-57.38,1.91992-114.75,5.83008-172.15002,3.87988-57.37,5.83984-114.74994,5.83984-172.12994,0-35.01001-9.27002-64.41003-27.71973-88.27002-18.5-23.82001-40.37012-46.90002-65.6499-69.29999h-5.8501c-16.53027,0-32.08008,8.52997-46.67017,25.53998-14.59009,17.02002-27.95996,35.01001-40.11011,53.98999-12.16992,18.95001-22.37988,35.23999-30.6499,48.85004-8.26001,13.63-13.8501,17.51996-16.77002,11.66998v17.52002c22.36011,2.91998,38.41016,11.44995,48.14014,25.51001,9.69995,14.12,16.0498,31.62994,18.96997,52.51996,2.92993,20.94,3.6499,43.53998,2.17993,67.84003-1.45996,24.31995-1.21997,47.67999.75,70.02997v61.27002c0,32.07996-.51001,64.69-1.46997,97.72998-.97998,33.09003-2.43994,65.65002-4.38013,97.73999-1.95996,10.73004-5.60986,20.19-10.94995,28.46002-5.33984,8.27002-8.03003,17.27002-8.03003,26.97998,0,4.89001,5.13013,12.91003,15.34009,24.08002,10.20996,11.19,21.63013,22.59998,34.28003,34.26001,12.62988,11.69,24.7998,22.13995,36.47021,31.37,11.66992,9.26996,19.43994,13.87,23.33984,13.87,6.77979,0,16.77002-4.38,29.8999-13.13s26.73975-19.19,40.8501-31.35999c14.08984-12.15002,27.45996-24.08002,40.10986-35.75,12.62988-11.67004,21.37988-20.42004,26.26025-26.26001v-2.90002c0-8.76996-2.91992-15.07001-8.74023-18.97998Z"/>
    <path class="c" d="M8007.52855,623.35888c-8.75,0-15.31006,3.64001-19.7002,10.95001-4.35986,7.28003-8.25977,15.54999-11.66992,24.79999-3.41992,9.23999-7.27979,17.48999-11.66992,24.79999-4.37988,7.28003-11.4502,10.92004-21.1499,10.92004-3.91016,0-9.49023-4.12-16.78027-12.39001-7.27979-8.26001-15.30957-17.51001-24.06982-27.72003-8.75-10.19995-16.77979-20.16998-24.06006-29.89996-7.31006-9.71002-12.91016-16.04999-16.77002-18.97998h-2.93018c-13.62988,0-27.95996,8.76996-43.02979,26.26996-15.08984,17.51001-29.41992,36.46002-43.02979,56.90002-13.63037,20.40997-24.80029,38.42999-33.57031,53.95996-8.48975,15.11005-12.85986,20.61005-13.12012,16.46002.12012,7.56,3.78027,12.03003,10.94043,13.46002,7.27979,1.44,15.5498,3.40997,24.7998,5.82996,9.21973,2.44,17.72998,6.82001,25.54004,13.13,7.75977,6.34003,12.62988,17.27002,14.56982,32.82001v147.34003c0,10.69995.47998,18.96997,1.45996,24.78998v125.46002c0,33.08997-4.13965,63.46997-12.38965,91.19-8.29004,27.69995-12.41016,55.20996-12.41016,82.42999v5.82001c0,3.89996,5.58008,8.76996,16.77002,14.58997,11.16992,5.84998,25.04004,12.65002,41.6001,20.41998,16.50977,7.80005,34.5,15.57001,53.95996,23.35004,19.44971,7.78998,37.41992,15.07996,53.97998,21.88,16.52979,6.81,30.37988,12.38995,41.56982,16.76996,11.1001,4.36005,16.7002,7.02002,16.77002,8.01001,10.12988-.22998,19.37988-2.88,27.72021-8.01001,8.77002-5.33997,17.02002-11.66998,24.7998-18.94995,7.79004-7.31,15.81982-14.59003,24.08008-21.90002,8.25-7.28003,17.25-12.87,26.97998-16.77002,21.3999-5.82001,41.06982-10.45001,59.08984-13.84998,17.99023-3.40002,33.54004-7.04999,46.66992-10.95001,13.13037-3.88,23.1001-8.98999,29.93018-15.31,6.77979-6.33002,10.20996-15.33002,10.20996-27v-641.87l-245.08984-8.75ZM8106.71849,1259.40887c-4.85986,8.73999-12.6499,13.13-23.33984,13.13-5.82031,0-15.31006-2.91998-28.44043-8.77002-13.12988-5.81995-26.51953-12.87-40.10986-21.15997-13.62988-8.23999-26.25977-16.77002-37.92969-25.52002-11.68994-8.73999-18.49023-16.04999-20.43018-21.87v-425.98999c.95996-1.91998,2.66016-4.35999,5.1001-7.27997,2.41992-2.92999,4.11963-4.39001,5.1001-4.39001h128.37988l11.66992,11.66998v490.17999ZM8001.69847,1406.73888h1.43994v-.02002c-.47998.01001-.95996.02002-1.43994.02002Z"/>
    <path class="c" d="M8519.55833,1004.10888c9.7002-13.60999,21.37012-27.72003,35.01025-42.31,13.60986-14.59003,27.21973-28.67999,40.8501-42.31,13.58984-13.59003,24.29004-24.79999,32.08008-33.54999,3.87988-3.88,10.44971-10.69,19.69971-20.41003,9.22021-9.70996,19.18994-20.17999,29.8999-31.37,10.68994-11.16998,20.65039-21.89996,29.90039-32.09998,9.22949-10.21002,15.78955-17.26001,19.69971-21.15997v-18.95001c0-2.92999-.23975-5.59003-.72021-8.03003-.5-2.41998-2.20996-5.09998-5.10986-8.02997l-140.04004-140.04999h-8.77002c-10.70996,0-19.93994,3.42999-27.69971,10.20996-7.81006,6.83002-15.34033,14.85999-22.62012,24.08002-7.31006,9.25-14.37012,18.5-21.16016,27.71997-6.7998,9.25-15.08984,15.82001-24.7998,19.70001-10.7002,4.85999-23.6001,9.01001-38.64014,12.39001-15.1001,3.41998-29.4502,7.81-43.06006,13.13-13.60986,5.35999-25.2998,11.45001-35.00977,18.22998-9.72021,6.83002-14.59033,15.57001-14.59033,26.26001v443.47998c.95996,4.89001,1.45996,10.21002,1.45996,16.04999v55.45001c0,11.66998-.5,21.87-1.45996,30.62l78.78027,37.92999c8.75,4.88,19.2002,10.95001,31.37012,18.23004,12.1499,7.31,24.55957,14.38,37.20996,21.15997,12.62988,6.79999,24.29004,12.89001,35,18.22998,10.68994,5.37,19.91992,8.03003,27.72998,8.03003,4.83984,0,15.5498-5.58002,32.08008-16.77002,16.52979-11.16998,34.0498-23.58002,52.52002-37.20996,18.46973-13.61005,34.76953-26.98004,48.87988-40.11005,14.08984-13.13,21.1499-22.12,21.1499-27,0-5.82996-.73975-10.42999-2.19971-13.84998-1.46045-3.41003-4.62012-7.53003-9.49023-12.39001-3.87988.96002-7.78027,1.44-11.66992,1.44h-11.66016c-8.75,0-22.6001-1.67999-41.58008-5.10999-18.94971-3.38-37.91992-8.02002-56.87988-13.85004-18.96973-5.83997-35.53027-13.12994-49.6001-21.87-14.10986-8.76996-21.1499-18.97998-21.1499-30.64996v-151.71002c0-8.75,4.83984-19.91998,14.58984-33.54999ZM8500.57835,906.35888v-100.65997c0-7.77002.95996-15.79004,2.93018-24.06,1.93994-8.23999,6.2998-12.41003,13.12988-12.41003,6.78027,1.96002,13.8501,5.61005,21.1499,10.95001,7.29004,5.35999,14.07031,11.66998,20.42041,18.95001,6.2998,7.31,11.66992,15.09998,16.0498,23.35999,4.35986,8.27002,6.56982,15.82001,6.56982,22.60004,0,5.83997-2.70996,12.90997-8.02979,21.14996-5.37012,8.28998-11.66992,16.06-18.97998,23.33997-7.28027,7.31-14.56982,13.63-21.87012,18.98004-7.29004,5.33997-12.39014,8.01996-15.31006,8.01996-2.92969,0-6.3501-.73999-10.20996-2.19995-3.91016-1.46002-5.8501-4.12-5.8501-8.02002Z"/>
  </g>
  <g>
    <path class="c" d="M4016.36851,1708.40887c-88.03003-92.39001-227.36005-138.58997-417.97003-138.58997-34.03998,0-61.02002,1.45996-80.96002,4.35999-19.92999,2.91998-33.79999,5.37-41.56995,7.31-11.67004,2.91998-28.22003,6.32001-49.60004,10.21002-21.39001,3.89996-43.02997,8.73999-64.90997,14.58997-21.89001,5.82001-42.31,12.39001-61.28998,19.69-18.95001,7.28998-32.34003,15.82001-40.11005,25.52002-7.77997,10.70996-12.16998,23.33997-13.13,37.92999-.97998,14.58997-2.43994,27.23999-4.37994,37.92999-3.88,16.54999-9.97003,31.63-18.23004,45.23999-8.26996,13.63-12.39001,28.67999-12.39001,45.21002v4.38c0,3.90997.48004,7.78998,1.46002,11.66998.96002,3.90997,3.85999,5.83002,8.75,5.83002l2.91998-1.44c45.69-23.36005,86.06-42.08002,121.07001-56.19,35.03003-14.07001,68.57001-25.02002,100.65997-32.79999,32.10004-7.79004,64.67004-12.89001,97.75-15.33002,33.05005-2.40002,70.5-3.65002,112.33002-3.65002v8.75c0,5.84003-6.08997,14.10999-18.22998,24.79999-12.16998,10.73004-26.77002,22.40002-43.78003,35.03003-17.02997,12.65002-34.78998,25.29999-53.23999,37.92999-18.48999,12.65002-34.52997,22.84998-48.14001,30.62-14.58997,9.72998-30.39996,18.48999-47.40997,26.26001-17.03998,7.81-32.83002,15.81-47.41998,24.07996-14.59003,8.26001-26.97998,17.27002-37.19,26.97998-10.22998,9.72009-15.33002,21.39014-15.33002,35v320.95007c0,25.29993-.97998,48.64001-2.89996,70.01001-1.96002,21.42004-5.85004,41.59998-11.69,60.54993-5.82001,18.97998-14.35004,37.21008-25.52002,54.70007-11.19,17.5199-26.5,35.02991-45.96002,52.5199v17.52002l46.68005,58.34009c0,.97998,1.45996,1.93994,4.37994,2.91992,2.93005.96008,5.35004,1.94006,7.29004,2.93005h5.83997c2.92999-.98999,8.25-2.45007,16.06-4.39001,7.76001-1.93994,16.03003-4.38,24.80005-7.28003,8.73999-2.92993,16.98999-5.34998,24.78998-7.30994,7.77002-1.94006,13.13-3.40002,16.06-4.35999h186.71997c25.28003,0,51.28003,1.43994,78.04004,4.35999,26.73999,2.92004,52.51996,5.84998,77.31995,8.75,24.80005,2.92004,47.63,5.62,68.57001,8.0199,20.90002,2.42017,38.15002,3.17017,51.78003,2.21008,1.94,0,5.58997-2.45007,10.95001-7.30994,5.32001-4.84009,11.16998-11.17004,17.48999-18.95007,6.33002-7.78992,13.13-16.53992,20.44-26.26001,7.27997-9.70996,13.84998-19.45996,19.69-29.19006,8.75-11.66992,22.35999-20.40991,40.82996-26.25989,18.48004-5.81995,36.95001-10.68005,55.45001-14.58997,18.45001-3.86011,35.48004-7.28003,51.06-10.21008,15.55005-2.92004,24.80005-7.27991,27.72003-13.13,16.51001-53.47998,26.73999-107.93994,30.63-163.38,3.88-55.42004,5.84998-110.87,5.84998-166.30994,0-198.39001-44.02997-343.76001-132.02997-436.17004ZM3487.5385,2137.29888c0-24.30005.23999-50.08008.73999-77.32007.46002-27.21997.94-53,1.44-77.31995.47998-24.29993.73999-41.33997.73999-51.05994,10.69-11.67004,22.12-21.64008,34.29004-29.91003,12.14996-8.23999,26-12.41003,41.56995-12.41003v269.89001c2.92004,20.44006,4.38,40.37,4.38,59.80994,0,25.30005-1.45996,50.1001-4.38,74.42004,0,6.80005-2.44,13.37-7.31,19.67004-4.85999,6.34998-10.91998,11.92993-18.22998,16.79004-7.28998,4.86987-14.83002,8.75-22.59998,11.66992-7.80005,2.90002-15.09003,4.35999-21.89001,4.35999h-2.91003c-3.89996,0-5.83997-1.91003-5.83997-5.81995v-202.77002ZM3995.20848,2211.68889c-2.91998,22.38-5.09998,48.40002-6.57001,78.03992-1.45996,29.69006-4.62,57.89014-9.47998,84.63013-4.87,26.76001-11.90997,49.35986-21.15997,67.82996-9.25,18.46997-23.10004,27.71997-41.57001,27.71997-37.92999,0-75.86005-2.42004-113.79004-7.30994-37.92999-4.84009-75.85999-7.28003-113.78998-7.28003-9.72003,0-21.65002.5-35.73999,1.45996-14.09003.97998-27.97003,1.69995-41.58002,2.17993-13.63.5-29.65997,1.70007-48.13,3.64014h-29.19c-11.65997,3.90991-24.31,10.46997-37.91998,19.69995-13.64001,9.25-27.48999,18.5-41.58002,27.71997-14.10999,9.25-27.71997,17.48999-40.84998,24.80005-13.13,7.29004-24.56,10.94995-34.26001,10.94995-7.81,0-14.38-2.19995-19.70001-6.56995-5.35999-4.38-8.01996-10.44006-8.01996-18.2301,0-6.79993,10.67999-18.26001,32.07996-34.28992,21.40002-16.04993,46.19-33.05994,74.40002-51.05994,28.20001-17.98999,55.91998-35,83.15997-51.05005,27.22003-16.06006,46.16998-27.01001,56.88-32.83008l93.38-46.67993,5.82001-11.66003v-14.59998c0-9.71997-.23999-23.81006-.72003-42.31006-.5-18.44995-.71997-39.38989-.71997-62.72998,0-23.32996-.26001-48.60999-.73999-75.85999-.5-27.21997-.72003-54.94006-.72003-83.14001,0-35.03003.48004-69.29004,1.46002-102.85999.94-33.53998,2.40002-63.69,4.35999-90.44995,1.94-26.74005,5.10999-48.13,9.48999-64.19,4.38-16.03003,9.49005-24.05005,15.31-24.05005,16.53003,0,34.05005,3.90002,52.52002,11.66003,18.47998,7.78998,34.51001,15.58002,48.14001,23.33997,34.04999,19.48004,62.01001,43.03003,83.88,70.76001,21.88,27.72003,39.14996,57.62,51.79999,89.70001,12.63,32.10999,21.38,66.16003,26.23999,102.12,4.87,35.98999,7.31,72,7.31,107.96997v72.93005Z"/>
    <path class="c" d="M4396.38847,2214.60894c9.70001-13.61011,21.37-27.72009,34.99994-42.31006,13.61011-14.59009,27.22009-28.67993,40.86011-42.31006,13.57996-13.58997,24.29004-24.79993,32.07996-33.54993,3.88-3.88,10.45007-10.68005,19.69006-20.41003,9.22998-9.70996,19.19995-20.17993,29.90991-31.37,10.68005-11.16003,20.65002-21.89001,29.90002-32.09998,9.2301-10.20996,15.79004-17.25,19.70007-21.16003v-18.94995c0-2.92004-.23999-5.57996-.71997-8.03003-.51001-2.42004-2.21008-5.09998-5.11011-8.02002l-140.05005-140.04999h-8.76001c-10.70996,0-19.93994,3.41998-27.69995,10.21002-7.81,6.82001-15.33997,14.84998-22.62,24.07001-7.31,9.25-14.37,18.5-21.15997,27.72998-6.79999,9.23999-15.09003,15.81-24.79999,19.69-10.71002,4.87-23.60004,9.01001-38.65002,12.39001-15.08997,3.42004-29.44,7.80994-43.04999,13.13-13.60999,5.37-25.29999,11.44995-35.01001,18.22998-9.71997,6.83008-14.58997,15.58008-14.58997,26.26001v443.48999c.95996,4.88,1.45996,10.19995,1.45996,16.05005v55.43994c0,11.66992-.5,21.88-1.45996,30.62l78.77997,37.93005c8.75,4.88989,19.20001,10.94995,31.37,18.23999,12.15002,7.30005,24.56,14.37,37.21002,21.1499,12.62,6.81006,24.28998,12.89014,35,18.23999,10.69,5.36011,19.91998,8.02002,27.71991,8.02002,4.8501,0,15.56006-5.57996,32.09009-16.77002,16.53003-11.16992,34.04004-23.57996,52.52002-37.20996,18.46997-13.60999,34.76001-26.97998,48.87988-40.10999,14.09009-13.13,21.15015-22.10999,21.15015-27,0-5.81995-.73999-10.43005-2.20007-13.84998-1.45996-3.40002-4.62-7.53003-9.48999-12.39001-3.88.96008-7.77991,1.44006-11.67004,1.44006h-11.66992c-8.73999,0-22.59009-1.68005-41.57007-5.1001-18.94995-3.37988-37.92993-8.03003-56.87988-13.84998-18.9801-5.84998-35.53009-13.13-49.6001-21.88-14.10999-8.77002-21.14996-18.96997-21.14996-30.63989v-151.72009c0-8.75,4.83997-19.91003,14.58997-33.54993ZM4377.40849,2116.85894v-100.66003c0-7.76001.96002-15.79004,2.91998-24.06006,1.95001-8.23999,6.31-12.41003,13.13-12.41003,6.79004,1.97009,13.85004,5.61011,21.16003,10.95007,7.28998,5.37,14.06995,11.67004,20.42004,18.95996,6.29993,7.30005,11.66992,15.08997,16.04993,23.35999,4.35999,8.26001,6.55994,15.81006,6.55994,22.59009,0,5.84998-2.69995,12.90991-8.02002,21.15991-5.36987,8.29004-11.66992,16.05005-18.97998,23.34009-7.27991,7.29993-14.56995,13.62988-21.86993,18.96997-7.28998,5.34998-12.39001,8.03003-15.32001,8.03003-2.91998,0-6.33997-.73999-10.20001-2.20996-3.90997-1.46008-5.84998-4.12012-5.84998-8.02002Z"/>
    <path class="c" d="M5029.48851,1876.89886c-14.59009-11.16998-31.36011-22.62-50.34009-34.28998-18.94995-11.66998-37.68994-21.88-56.15991-30.62-18.46997-8.77002-31.12-13.13-37.92993-13.13h-2.92017c-19.45996,19.45001-39.62988,40.34998-60.52991,62.71997-20.94006,22.38-43.53003,40.38-67.82996,53.96002-10.72998,6.83008-21.66003,11.44995-32.82007,13.88-11.18994,2.44006-21.65991,7.53992-31.37,15.30994-5.83997,4.88013-10.46997,12.41003-13.87,22.61011-3.40002,10.20996-6.33008,21.87988-8.75,35.01001-2.43994,13.12988-4.14001,27.23999-5.09998,42.30994-.9801,15.09998-1.46008,28.95007-1.46008,41.57996v48.13013c0,6.82996-.23999,14.82996-.71997,24.07996-.5,9.25-.73999,19.21997-.73999,29.90002l35,86.06995c24.30005,21.40002,46.19995,41.08997,65.65002,59.08997,19.46008,17.98999,36.22998,37.44995,50.33997,58.34009,14.09009,20.93994,24.80005,44.01001,32.09009,69.28992,7.29993,25.30005,10.94995,55.95007,10.94995,91.91003,0,27.25-3.42993,52.04004-10.20996,74.40002-6.83008,22.35999-16.05005,43.77991-27.71997,64.18994-11.67017,20.42004-25.06006,40.34998-40.13013,59.81006-15.07996,19.44995-30.40991,39.39001-45.93994,59.81995,0,8.75,3.14001,14.57007,9.46997,17.5,6.32007,2.92004,13.37,4.38,21.15002,4.38,6.80994,0,16.77991-5.60999,29.91003-16.7699,13.12988-11.21008,27.21997-25.06006,42.30994-41.6001,15.06995-16.53003,30.64001-35,46.67004-55.41992,16.06006-20.43005,30.87-40.13013,44.5-59.08008,13.60999-18.97998,25.28003-35.75,35.01001-50.33997,9.71997-14.56995,15.55005-24.30005,17.51001-29.16003l1.45996-2.92993c4.85999-13.61011,11.42993-31.12012,19.69995-52.52002,8.23999-21.37012,12.38013-38.41003,12.38013-51.06006,0-34.02002-4.62012-64.3999-13.8501-91.16992-9.23999-26.73999-22.37-52.25-39.38989-76.6001-17.03003-24.29004-36.70007-49.32996-59.08008-75.10999-22.38-25.75989-46.67993-55.18005-72.93994-88.2699-1.96008-6.78003-4.38013-16.98999-7.28003-30.62012-2.92004-13.60999-4.39001-22.83997-4.39001-27.72998,0-2.91992.21997-11.41992.71997-25.51001.47998-14.08997,1.47009-29.18994,2.93005-45.23999s4.11987-30.62,8.02002-43.75c3.88989-13.13,9.70996-19.69995,17.52002-19.69995,11.66992,0,22.82983,3.3999,33.53992,10.20996,10.69006,6.80005,20.90002,14.10999,30.65002,21.88,9.69995,7.79993,19.42993,15.08997,29.15991,21.87,9.70007,6.83008,20.43005,10.22998,32.1001,10.22998,6.79004,0,15.06995-4.85999,24.80005-14.58997,9.70996-9.71008,18.95996-21.16003,27.71997-34.28992,8.75-13.13013,16.28003-25.99011,22.59985-38.67017,6.33008-12.59985,9.49011-21.36993,9.49011-26.23993,0-4.85999-7.29004-12.89001-21.88-24.07001Z"/>
    <path class="c" d="M5278.21849,1655.16888c-13.13-9.25-24.58008-13.88-34.28003-13.88h-4.38989c-9.7301,4.89001-20.41016,11.92999-32.08008,21.16003-11.66992,9.25-22.62,18.73999-32.83008,28.43994-10.19995,9.73004-18.72998,19.22003-25.53992,28.44-6.79993,9.27002-10.21008,16.32001-10.21008,21.16003,0,10.71002,4.87012,19.47998,14.6001,26.26001,9.69995,6.82996,19.90991,10.20996,30.63989,10.20996,3.86011,0,12.15015-3.63995,24.80005-10.92999,12.63013-7.31,25.52002-16.04999,38.65002-26.26001,13.13-10.20996,24.79993-20.44,35.01001-30.63995,10.20007-10.21002,15.32996-18.24005,15.32996-24.06,0-10.69-6.56995-20.66003-19.69995-29.90002ZM5359.17845,2488.85894c-5.83997-3.88013-12.40991-7.28003-19.68994-10.20007-7.31006-2.93005-14.37-6.06995-21.16003-9.48999-6.81995-3.40002-11.67004-8.98999-14.58997-16.77002,0-3.89001-.5-11.43005-1.45996-22.62-.97998-11.16992-1.70007-23.07996-2.18005-35.72998-.5-12.63-.97998-24.29004-1.46008-35.03003-.5-10.67993-.71997-18.44995-.71997-23.32996v-5.82996c0-57.38013,1.92004-114.73999,5.82007-172.15015,3.88-57.35986,5.84998-114.75,5.84998-172.12988,0-35.01001-9.27002-64.41003-27.71997-88.27002-18.5-23.82001-40.38-46.89001-65.66003-69.29004h-5.83997c-16.53003,0-32.07996,8.53003-46.68005,25.54004-14.58997,17.01001-27.95996,35-40.10999,53.97998-12.17004,18.94995-22.37,35.25-30.64001,48.85999-8.27002,13.63-13.84998,17.51001-16.77002,11.66003v17.52002c22.3501,2.91992,38.41003,11.44995,48.13013,25.52002,9.70996,14.10986,16.05994,31.61987,18.97998,52.52002,2.91992,20.93994,3.63989,43.52991,2.17993,67.82996-1.45996,24.31995-1.21997,47.68005.73999,70.02991v61.27002c0,32.09009-.5,64.69006-1.45996,97.73999-.97998,33.08008-2.43994,65.65002-4.38,97.72998-1.97009,10.7301-5.60999,20.20007-10.95007,28.46008-5.34985,8.27002-8.03003,17.27991-8.03003,26.97998,0,4.89001,5.13013,12.92004,15.33008,24.07996,10.20996,11.19006,21.64001,22.6001,34.29004,34.27002,12.62988,11.69006,24.80005,22.14001,36.46997,31.36011,11.66992,9.2699,19.42993,13.86987,23.34009,13.86987,6.77991,0,16.7699-4.37988,29.8999-13.12988,13.13-8.73999,26.73999-19.19006,40.8501-31.36011,14.08984-12.1499,27.45996-24.07996,40.10986-35.75,12.63013-11.66992,21.38013-20.40991,26.26001-26.26001v-2.8999c0-8.77002-2.91992-15.07007-8.75-18.97998Z"/>
    <path class="c" d="M5934.68846,1841.88885c-4.38989-3.39996-10.22998-5.84998-17.52002-7.31-7.28003-1.45996-14.82983-1.94-22.61987-1.45996-7.78003.5-13.13013.73999-16.03003.73999l-291.76001-2.91998c-9.75,7.81-16.77002,14.82996-21.16016,21.15997-4.37988,6.32001-10.94995,13.37-19.68994,21.15002-4.88989,4.87-12.90991,10.92999-24.08008,18.23999-11.18994,7.27997-22.11987,15.08997-32.82983,23.33002-10.70996,8.27002-20.17017,16.78003-28.43994,25.52002-8.26001,8.77002-12.39014,17.04004-12.39014,24.79993v256.76001c.95996,10.71008,1.45996,22.38,1.45996,35.01001v237.79993c-.97998,0,6.31006,6.09009,21.88013,18.2301,15.55005,12.17004,33.79004,25.29993,54.69995,39.39001,20.90015,14.08997,42.32007,26.97998,64.18994,38.6499,21.88013,11.67004,38.65015,17.52002,50.32007,17.52002,4.85986,0,15.07007-6.56995,30.64014-19.69995,15.55981-13.13,30.1499-26.5,43.77979-40.13h23.34009c1.93994,7.80994,3.13989,14.58997,3.63989,20.44006.47998,5.81995.95996,11.66992,1.45996,17.48999.48022,5.83997.72021,10.70996.72021,14.58997v81.69995l5.83984,23.33997v2.92004c0,14.56995-7.7998,21.88-23.32983,21.88-16.56006,0-34.29004-3.41992-53.27002-10.20996-18.94995-6.82007-38.42993-14.8501-58.34009-24.08008-19.92993-9.23999-39.38989-18.94995-58.33984-29.17993-18.98022-10.20996-36.25-18.72998-51.80005-25.52002h-7.29004c-10.70996,0-20.67993,4.12-29.90015,12.39001-9.27002,8.27002-17.75989,18.23999-25.53992,29.93005-7.78992,11.65991-14.82996,23.32996-21.16003,35-6.31995,11.66992-11.42993,20.8999-15.30994,27.71997v5.82996c.95996,4.85999,8.98999,11.43005,24.07996,19.69006,15.05005,8.25,33.28003,17.25,54.69995,26.97998,21.38013,9.72998,44.22998,19.93994,68.55005,30.6499,24.30005,10.68005,46.92017,20.41003,67.86011,29.18005,20.88989,8.75,45.42993,18.45007,73.6499,29.16003,7.79004,0,16.05005-4.36011,24.80005-13.13,8.77002-8.75,17.51001-18.95007,26.26001-30.62,8.75-11.67004,17.51001-23.12,26.26001-34.29004,8.75-11.18994,17.01001-18.72998,24.80005-22.62l100.65991-58.33997v-827.16003l37.92993-43.75c3.88013-7.76001,3.64014-13.34998-.71997-16.77002ZM5750.13841,2455.3189c0,5.81995-3.63989,11.18994-10.93994,16.03003-7.29004,4.88989-13.37012,7.30994-18.23999,7.30994l-119.61011-62.72998v-433.27002l14.57007-11.67004h116.70996l17.51001,17.51001v466.82007Z"/>
    <path class="c" d="M6599.1284,2464.0689c-6.80005-1.94995-14.34985-3.14001-22.60986-3.65002-8.27002-.47998-15.82007-2.42004-22.6001-5.83997-6.82983-3.38-10.20996-11.89001-10.20996-25.52002v-367.62l20.41992-118.17004c0-3.85999-2.17993-6.56995-6.56982-8.03003-4.38013-1.45996-9.01001-4.11987-13.8501-8.03003-3.8999-1.91992-15.09009-8.23999-33.57007-18.94989-18.46997-10.69-38.42993-21.88-59.7998-33.55005-21.40015-11.65997-41.09009-22.37-59.09009-32.09998-17.98999-9.71002-28.43994-14.59003-31.36011-14.59003h-8.75c-5.83984,7.81-13.12988,16.79004-21.86987,27-8.77002,10.21002-18.26001,20.41003-28.46997,30.62-10.2002,10.21002-20.67017,18.74005-31.36011,25.54004-10.70996,6.80994-20.41992,10.20996-29.15991,10.20996-1.95996,0-4.16992-.47998-6.57007-1.45996-2.43994-.96008-4.15991-2.42004-5.11987-4.39001l-81.68018-81.67999h-8.75c-8.77002,0-20.43994,7.28998-35.03003,21.88-14.56982,14.58997-28.93994,30.64001-43.03003,48.14001-14.10986,17.50995-26.5,33.79999-37.18994,48.86993-10.70996,15.1001-16.5498,23.12012-17.51001,24.08008,0,2.8999,2.92017,6.56995,8.73999,10.92993,5.8501,4.38,12.63013,9.01001,20.43994,13.87012,7.77002,4.86987,15.55005,9.96997,23.34009,15.30994,7.76001,5.34998,14.09009,10.46997,18.94995,15.30994,2.92017,23.34009,4.63013,46.45996,5.13013,69.30005.47998,22.85999.71997,45.46997.71997,67.83008v261.13989c0,7.79004-.23999,14.83008-.71997,21.14001-.5,6.33997-.73999,10.46008-.73999,12.41003l-36.46997,49.58997,119.62988,103.57996c6.78003,0,16.03003-5.09998,27.69995-15.30994,11.67017-10.22998,23.36011-22.10999,35.03003-35.75,11.67017-13.60999,21.61011-26.47009,29.90015-38.67004,8.25-12.13989,12.38989-20.62988,12.38989-25.52002,0-5.83997-4.86011-12.85986-14.59009-21.1499-9.72998-8.25-15.5498-16.27002-17.48975-24.06006-.99023-5.83997-1.47021-11.16992-1.47021-16.05005v-409.93994c0-17.48999,2.43018-32.32007,7.29004-44.48999,4.86011-12.15002,10.68994-18.23999,17.51001-18.23999,4.87012,0,14.09009,1.72998,27.72998,5.10999,13.61011,3.42004,27.71997,8.02002,42.29004,13.87,14.59009,5.82007,27.47998,13.13,38.66992,21.88,11.16016,8.73999,16.77002,18.48999,16.77002,29.18005v484.30994c0,2.92004,5.1001,9.48999,15.31006,19.70007,10.20996,10.21997,21.63989,20.66992,34.29004,31.35986,12.62988,10.7301,24.56006,20.44006,35.75,29.18005,11.15991,8.75,17.72998,13.13,19.68994,13.13h2.90015c2.91992,0,10.44995-6.56006,22.61987-19.68994,12.15015-13.13013,25.28003-27.71997,39.38989-43.76001,14.09009-16.05005,26.47998-31.12012,37.21021-45.22998,10.68994-14.09009,16.03003-22.62012,16.03003-25.52002,0-9.72998-3.40015-15.55005-10.21021-17.51001Z"/>
  </g>
</svg>